
        <svg xmlns="http://www.w3.org/2000/svg" xmlns:xlink="http://www.w3.org/1999/xlink" version="1.1" width="3187.5" height="1301.763276474957" viewBox="0 0 3187.5 1301.763276474957">
			
			<g transform="scale(9.375) translate(10, 10)">
				<defs id="SvgjsDefs1675"/><g id="SvgjsG1676" featureKey="odWo6G-0" transform="matrix(1.4299766179970728,0,0,1.4299766179970728,-20.068855645588535,-11.729870661477648)" fill="#000"><title xmlns="http://www.w3.org/2000/svg">28-08-2015 - code</title><desc xmlns="http://www.w3.org/2000/svg">Created with Sketch.</desc><g xmlns="http://www.w3.org/2000/svg" stroke="none" stroke-width="1" fill-rule="evenodd" xmlns:sketch="http://www.bohemiancoding.com/sketch/ns" sketch:type="MSPage"><g sketch:type="MSArtboardGroup"><path d="M83.9420361,50.0031761 C84.0455988,49.2560782 83.807666,48.4723838 83.2325201,47.8972379 L68.0203173,32.6850351 C67.0506811,31.7153989 65.4688221,31.7109131 64.4959279,32.6838072 C63.5162509,33.6634843 63.5235834,35.2346243 64.4971558,36.2081966 L78.2881642,49.9992051 L64.4995875,63.7877818 C63.5299513,64.757418 63.5254654,66.339277 64.4983596,67.3121712 C65.4780367,68.2918482 67.0491767,68.2845157 68.022749,67.3109433 L83.2349518,52.0987406 C83.8046831,51.5290093 84.0412048,50.7479135 83.9420361,50.0031761 L83.9420361,50.0031761 Z M14.0579639,50.0031761 C13.9544012,49.2560782 14.192334,48.4723838 14.7674799,47.8972379 L29.9796827,32.6850351 C30.9493189,31.7153989 32.5311779,31.7109131 33.5040721,32.6838072 C34.4837491,33.6634843 34.4764166,35.2346243 33.5028442,36.2081966 L19.7118358,49.9992051 L33.5004125,63.7877818 C34.4700487,64.757418 34.4745346,66.339277 33.5016404,67.3121712 C32.5219633,68.2918482 30.9508233,68.2845157 29.977251,67.3109433 L14.7650482,52.0987406 C14.1953169,51.5290093 13.9587952,50.7479135 14.0579639,50.0031761 L14.0579639,50.0031761 Z M54.9901856,27.6944914 C55.3662544,26.661251 56.5053113,26.1272656 57.5505036,26.5076845 C58.5884594,26.8854695 59.1258109,28.0271719 58.7489561,29.062572 L43.0098144,72.3055086 C42.6337456,73.338749 41.4946887,73.8727344 40.4494964,73.4923155 C39.4115406,73.1145305 38.8741891,71.9728281 39.2510439,70.937428 L54.9901856,27.6944914 Z" sketch:type="MSShapeGroup"/></g></g></g><g id="SvgjsG1677" featureKey="VGK2BT-0" transform="matrix(8.765461119282884,0,0,8.765461119282884,115.57218199774162,-56.455346451787854)" fill="#000"><path d="M7.4236 13.2203 l4.5595 6.4915 c0.10169 0.13559 0.033898 0.28797 -0.11864 0.28797 l-1.8475 0 c-0.16949 0 -0.22034 -0.13543 -0.33898 -0.28797 l-3.4068 -4.8644 l-3.4066 4.8644 c-0.10169 0.15254 -0.16949 0.28797 -0.32203 0.28797 l-1.8644 0 c-0.15254 0 -0.20339 -0.15238 -0.11864 -0.28797 l4.5593 -6.4915 l-4.5764 -6.5254 c-0.08458 -0.13559 -0.016784 -0.25424 0.11881 -0.25424 l1.8812 0 c0.13559 0 0.20339 0.10169 0.28814 0.25424 l3.4407 4.8985 l3.4407 -4.8985 c0.10169 -0.15254 0.15254 -0.25424 0.28814 -0.25424 l1.8812 0 c0.15254 0 0.20339 0.11864 0.11881 0.25424 z M21.033871186440678 12.7798 c1.4068 0.64407 2.2881 1.9324 2.2881 3.4408 c0 2.2373 -1.9661 3.7795 -4.0508 3.7795 l-5.4746 0 c-0.16949 0 -0.28814 -0.11864 -0.28814 -0.28814 l0 -13 c0 -0.15254 0.10169 -0.27119 0.27119 -0.27119 l5.051 0 c2.1524 0 3.7625 1.8814 3.7625 3.5763 c0 1.2373 -0.66102 2.2034 -1.5593 2.7627 z M18.457671186440678 12.2207 c2.8136 0 2.8644 -3.9322 0.033898 -3.9322 l-3.0678 0 l0 3.9322 l3.0339 0 z M18.83047118644068 18.1529 c3.322 0 3.339 -4.1356 -0.033898 -4.1356 l-3.3729 0 l0.016949 4.1356 l3.3898 0 z"/></g>
			</g>
		</svg>
	